<svg xmlns="http://www.w3.org/2000/svg">
	<symbol id="ico_menu" viewBox="0 0 10240 10240">
		<path d="M800 1920h10000v1920h-10000z M800 4480h10000v1920h-10000z M800 7040h10000v1920h-10000z"></path>
	</symbol>
	<symbol id="ico_forward" viewBox="0 0 10240 10240">
		<path d="M1920 1280l1280 0c353,0 640,288 640,640l0 6400c0,352 -288,640 -640,640l-1280 0c-352,0 -640,-287 -640,-640l0 -6400c0,-353 287,-640 640,-640z"/>
		<path d="M5559 1467l3216 3207c247,246 247,646 0,892l-3216 3207c-184,185 -447,237 -689,137 -241,-100 -390,-322 -390,-582l0 -6416c0,-260 149,-482 390,-582 242,-100 505,-48 689,137z"/>
	</symbol>
	<symbol id="ico_back" viewBox="0 0 10240 10240">
		<path d="M7040 1280l1280 0c353,0 640,288 640,640l0 6400c0,352 -288,640 -640,640l-1280 0c-352,0 -640,-287 -640,-640l0 -6400c0,-352 288,-640 640,-640z"/>
		<path d="M4681 1467l-3216 3207c-247,246 -247,646 0,892l3216 3207c184,185 447,237 689,137 241,-100 390,-322 390,-582l0 -6415c0,-261 -149,-483 -390,-583 -242,-100 -505,-48 -689,137z"/>
	</symbol>
	<symbol id="ico_start" viewBox="0 0 10240 10240">
		<path d="M2878 1364l5757 3209c207,115 325,314 325,547 0,233 -118,432 -325,547l-5757 3209c-204,113 -436,112 -639,-4 -203,-116 -319,-313 -319,-544l0 -6416c0,-231 116,-428 319,-544 203,-116 435,-117 639,-4z"/>
	</symbol>
	<symbol id="ico_stop" viewBox="0 0 10240 10240">
		<path d="M1920 1280l6400 0c353,0 640,287 640,640l0 6400c0,353 -287,640 -640,640l-6400 0c-353,0 -640,-287 -640,-640l0 -6400c0,-353 287,-640 640,-640z"/>
	</symbol>
	<symbol id="ico_fastforward" viewBox="0 0 10240 10240">
		<path d="M6899 1522l2496 3136c114,143 205,280 205,462 0,182 -91,319 -205,462l-2496 3136c-171,215 -448,295 -710,206 -261,-89 -429,-321 -429,-594l0 -6420c0,-273 168,-505 429,-594 262,-89 539,-9 710,206z"/>
		<path d="M2418 1522l2497 3136c114,143 205,280 205,462 0,182 -91,319 -205,462l-2497 3136c-170,215 -447,295 -709,206 -261,-89 -429,-321 -429,-594l0 -6420c0,-273 168,-505 429,-594 262,-89 539,-9 709,206z"/>
	</symbol>
	<symbol id="ico_rewind" viewBox="0 0 10240 10240">
		<path d="M7822 1522l-2497 3136c-114,143 -205,280 -205,462 0,182 91,319 205,462l2497 3136c170,215 447,295 709,206 261,-89 429,-321 429,-594l0 -6420c0,-273 -168,-505 -429,-594 -262,-89 -539,-9 -709,206z"/>
		<path d="M3342 1522l-2497 3136c-114,143 -205,280 -205,462 0,182 91,319 205,462l2497 3136c170,215 447,295 709,206 261,-89 429,-321 429,-594l0 -6420c0,-273 -168,-505 -429,-594 -262,-89 -539,-9 -709,206z"/>
	</symbol>
</svg>
